<?xml version="1.0" encoding="utf-8"?>
<!-- Generator: Adobe Illustrator 25.3.1, SVG Export Plug-In . SVG Version: 6.00 Build 0)  -->
<svg version="1.1" id="Layer_1" xmlns="http://www.w3.org/2000/svg" xmlns:xlink="http://www.w3.org/1999/xlink" x="0px" y="0px"
	 width="48px" height="48px" viewBox="0 0 48 48" style="enable-background:new 0 0 48 48;" xml:space="preserve">
<style type="text/css">
	.st0{enable-background:new    ;}
	.st1{opacity:0.4;enable-background:new    ;}
</style>
<g>
	<path class="st0" d="M24,27.3c-5.6,0-10.1-4.5-10.1-10.1C13.9,11.5,18.4,7,24,7c5.6,0,10.1,4.5,10.1,10.1
		C34.1,22.7,29.6,27.3,24,27.3z M24,9.7c-4.1,0-7.4,3.3-7.4,7.4s3.3,7.4,7.4,7.4s7.4-3.3,7.4-7.4S28.1,9.7,24,9.7z"/>
	<path class="st1" d="M11.3,41v-3.1c0-3.3,2.7-6,6-6h13.6c3.3,0,6,2.7,6,6V41h2.7v-3.1c0-4.8-3.9-8.7-8.7-8.7H17.2
		c-4.8,0-8.7,3.9-8.7,8.7V41H11.3z"/>
</g>
</svg>
