<?xml version="1.0" encoding="utf-8"?>
<!-- Generator: Adobe Illustrator 25.3.1, SVG Export Plug-In . SVG Version: 6.00 Build 0)  -->
<svg version="1.1" id="Layer_1" xmlns="http://www.w3.org/2000/svg" xmlns:xlink="http://www.w3.org/1999/xlink" x="0px" y="0px"
	 width="48px" height="48px" viewBox="0 0 48 48" style="enable-background:new 0 0 48 48;" xml:space="preserve">

<g>
	<path d="M39.1,40.9c-0.4,0-0.7-0.1-1-0.4L27.3,29.8c-0.6-0.6-0.6-1.5,0-2c0.6-0.6,1.5-0.6,2,0l10.8,10.7
		c0.6,0.6,0.6,1.5,0,2C39.8,40.8,39.4,40.9,39.1,40.9z"/>
	<path d="M20.5,33c-7.1,0-13-5.8-13-13c0-7.1,5.8-13,13-13s13,5.8,13,13C33.4,27.2,27.6,33,20.5,33z M20.5,9.9
		c-5.6,0-10.1,4.5-10.1,10.1c0,5.6,4.5,10.1,10.1,10.1S30.6,25.6,30.6,20C30.6,14.5,26,9.9,20.5,9.9z"/>
</g>
</svg>

