<?xml version="1.0" encoding="utf-8"?>
<!-- Generator: Adobe Illustrator 25.3.1, SVG Export Plug-In . SVG Version: 6.00 Build 0)  -->
<svg version="1.1" id="Layer_1" xmlns="http://www.w3.org/2000/svg" xmlns:xlink="http://www.w3.org/1999/xlink" x="0px" y="0px"
	 width="48px" height="48px" viewBox="0 0 48 48" style="enable-background:new 0 0 48 48;" xml:space="preserve">
<style type="text/css">
	.st0{fill-opacity:0.4;enable-background:new    ;}
</style>
<g>
	<path class="st0" d="M30.5,17.1c-0.6,0-1.1-0.5-1.1-1.1c0-3-2.4-5.4-5.4-5.4c-3,0-5.4,2.4-5.4,5.4c0,0.6-0.5,1.1-1.1,1.1
		c0,0,0,0,0,0c-0.6,0-1.1-0.5-1.1-1.1c0-4.2,3.5-7.7,7.7-7.7c0,0,0,0,0,0c4.2,0,7.7,3.4,7.7,7.7C31.7,16.6,31.2,17.1,30.5,17.1z"/>
	<path d="M30.3,39.7H17.7c-3.2,0-5.5-0.8-6.9-2.4c-1.4-1.6-1.9-4.1-1.4-7.3l1.2-9.1c0.8-4.2,3.6-5.6,5.8-5.6h15.4
		c2.2,0,4.9,1.5,5.8,5.5l1.2,9.2c0.4,3-0.1,5.4-1.6,7.1C35.6,38.8,33.3,39.7,30.3,39.7z M16.3,17.5c-0.7,0-2.9,0.3-3.5,3.7l-1.2,9.1
		c-0.4,2.5-0.1,4.4,0.9,5.5c0.9,1.1,2.6,1.6,5.2,1.6h12.6c1.6,0,3.7-0.3,5.1-1.8c1-1.2,1.4-3,1.1-5.3l-1.2-9.1
		c-0.5-2.3-1.8-3.7-3.5-3.7H16.3z"/>
</g>
</svg>
