<?xml version="1.0" encoding="utf-8"?>
<!-- Generator: Adobe Illustrator 25.2.3, SVG Export Plug-In . SVG Version: 6.00 Build 0)  -->
<svg version="1.1" id="Layer_2" xmlns="http://www.w3.org/2000/svg" xmlns:xlink="http://www.w3.org/1999/xlink" x="0px" y="0px"
	 width="48px" height="48px" viewBox="0 0 48 48" style="enable-background:new 0 0 48 48;" xml:space="preserve">
<style type="text/css">
	.st0{opacity:0.4;}
</style>
<path d="M31,22.4l-6-6.2l0,0c-0.3-0.2-0.3-0.2-0.5-0.3c-0.2,0-0.3-0.2-0.5-0.2s-0.3,0-0.5,0.2c-0.2,0-0.3,0.2-0.3,0.3l0,0L17,22.4
	c-0.5,0.5-0.5,1.1,0,1.6c0.2,0.2,0.5,0.3,0.8,0.3c0.3,0,0.6-0.2,0.8-0.3l4-4v10.4c0,0.6,0.5,1.3,1.3,1.3s1.3-0.5,1.3-1.3V20l4,4
	c0.5,0.5,1.3,0.5,1.8,0C31.6,23.5,31.3,22.9,31,22.4z"/>
<path class="st0" d="M24,41c-9.4,0-17-7.6-17-17S14.6,7,24,7c9.2,0,17,7.6,17,17S33.2,41,24,41z M24,9.4c-8.1,0-14.6,6.6-14.6,14.7
	S16.1,38.9,24,38.9s14.6-6.6,14.6-14.7C38.6,15.9,32.1,9.4,24,9.4z"/>
</svg>
