<?xml version="1.0" encoding="utf-8"?>
<!-- Generator: Adobe Illustrator 25.3.1, SVG Export Plug-In . SVG Version: 6.00 Build 0)  -->
<svg version="1.1" id="Layer_1" xmlns="http://www.w3.org/2000/svg" xmlns:xlink="http://www.w3.org/1999/xlink" x="0px" y="0px"
	 width="48px" height="48px" viewBox="0 0 48 48" style="enable-background:new 0 0 48 48;" xml:space="preserve">
<style type="text/css">
	.st0{opacity:0.4;}
</style>
<g class="st0">
	<path d="M37.8,19.9H10.1c-0.7,0-1.1-0.5-1.1-1.1c0-0.7,0.5-1.1,1.1-1.1h27.6c0.7,0,1.1,0.5,1.1,1.1C38.9,19.4,38.3,19.9,37.8,19.9z
		"/>
	<path d="M37.9,30.2H10.2c-0.7,0-1.1-0.5-1.1-1.1c0-0.7,0.5-1.1,1.1-1.1h27.6c0.7,0,1.1,0.5,1.1,1.1C39,29.8,38.5,30.2,37.9,30.2z"
		/>
	<path d="M24.3,40.3c-4.5,0-7.1-8.4-7.1-16.3s2.5-16.3,7.1-16.3s7.1,8.4,7.1,16.3C31.3,31.9,28.8,40.3,24.3,40.3z M24.3,10
		c-2,0-4.7,5.4-4.7,14s2.7,14,4.7,14S29,32.7,29,24S26.3,10,24.3,10z"/>
</g>
<path d="M24,40.5c-9.1,0-16.5-7.4-16.5-16.5S14.9,7.5,24,7.5S40.5,14.9,40.5,24S33.1,40.5,24,40.5z M24,9.8
	C16.2,9.8,9.8,16.1,9.8,24S16.2,38.2,24,38.2S38.2,31.8,38.2,24C38.2,16.1,31.8,9.8,24,9.8z"/>
</svg>
