<?xml version="1.0" encoding="utf-8"?>
<!-- Generator: Adobe Illustrator 26.3.1, SVG Export Plug-In . SVG Version: 6.00 Build 0)  -->
<svg version="1.1" id="Layer_1" xmlns="http://www.w3.org/2000/svg" xmlns:xlink="http://www.w3.org/1999/xlink" x="0px" y="0px"
	 width="167px" height="40px" viewBox="0 0 167 40" style="enable-background:new 0 0 167 40;" xml:space="preserve">
<style type="text/css">
	.st0{fill:#4C4C4C;}
</style>
<g>
	<path class="st0" d="M75.8,7.4L75.8,7.4c1.2,0,2.2-1,2.2-2.2C78,4,77,3,75.8,3c-1.2,0-2.2,1-2.2,2.2C73.5,6.5,74.5,7.4,75.8,7.4"/>
	<path class="st0" d="M84.4,5.5c1.2,0,2.2-1,2.2-2.2c0-1.2-1-2.3-2.2-2.3c-0.6,0-1.2,0.2-1.6,0.7c-0.4,0.4-0.6,1-0.6,1.6
		C82.2,4.5,83.2,5.5,84.4,5.5"/>
	<path class="st0" d="M93.1,7.5c0.6,0,1.2-0.2,1.6-0.7c0.4-0.4,0.7-1,0.7-1.6c0-1.2-1-2.2-2.2-2.2c-1.2,0-2.2,1-2.2,2.2
		c0,0.6,0.2,1.2,0.7,1.6C91.9,7.2,92.5,7.5,93.1,7.5"/>
	<path class="st0" d="M81.7,16.8c0.1,0,0.2,0.1,0.4,0.1c0.5,0,1-0.3,1.2-0.9c0,0,0.8-2.7,1.3-4.1c0.4,1.4,1.2,4.1,1.2,4.1
		c0.1,0.5,0.6,0.9,1.2,0.9c0.1,0,0.2,0,0.3,0c0.3-0.1,0.6-0.3,0.7-0.6c0.2-0.3,0.2-0.6,0.1-0.9l-2.3-8c-0.1-0.5-0.6-0.9-1.1-0.9
		c-0.5,0-1,0.4-1.2,0.9l-2.4,8C80.7,15.9,81,16.6,81.7,16.8"/>
	<path class="st0" d="M66.1,15.8c-1.2,0-2.2,1-2.2,2.3c0,1.2,1,2.2,2.2,2.2h0c1.2,0,2.2-1,2.2-2.2c0-0.6-0.2-1.2-0.7-1.6
		C67.3,16,66.7,15.8,66.1,15.8"/>
	<path class="st0" d="M84.4,17.5c-3.3,0-5.9,1.8-5.9,4.1c0,2.3,2.6,4.1,5.9,4.1c2,0,3.8-0.6,4.8-1.7c0.7-0.7,1-1.5,1-2.4
		c0-0.9-0.4-1.7-1-2.4C88.2,18.1,86.4,17.5,84.4,17.5 M84.4,23.2c-1.6,0-2.6-0.5-3.1-1C81.1,22,81,21.8,81,21.5
		c0-0.2,0.1-0.4,0.3-0.6c0.5-0.5,1.6-1,3.1-1c1.6,0,2.6,0.5,3.1,1c0.2,0.2,0.3,0.5,0.3,0.7c0,0.2-0.1,0.4-0.3,0.7
		C87.1,22.7,86,23.2,84.4,23.2"/>
	<path class="st0" d="M96.4,12.3L89,16.1c-0.3,0.1-0.5,0.4-0.6,0.7c-0.1,0.3-0.1,0.6,0.1,0.9c0.3,0.6,1,0.8,1.6,0.5
		c0,0,2.4-1.2,3.8-2c-0.7,1.3-2.1,3.8-2.1,3.8c-0.1,0.2-0.2,0.4-0.2,0.6c0,0.4,0.2,0.8,0.6,1c0.2,0.1,0.4,0.2,0.6,0.2
		c0.1,0,0.2,0,0.3,0c0.3-0.1,0.6-0.3,0.7-0.6L98,14c0.3-0.5,0.2-1.1-0.2-1.4C97.5,12.1,96.9,12.1,96.4,12.3"/>
	<path class="st0" d="M104.4,16.6c-0.4-0.4-1-0.7-1.6-0.7c-1.2,0-2.2,1-2.2,2.3c0,1.3,1,2.2,2.2,2.2c1.2,0,2.2-1,2.2-2.2
		C105.1,17.6,104.9,17,104.4,16.6"/>
	<path class="st0" d="M74.8,16.3c1.3,0.7,3.8,2,3.8,2c0.2,0.1,0.4,0.1,0.6,0.1c0.1,0,0.2,0,0.4-0.1c0.3-0.1,0.6-0.3,0.7-0.6
		c0.3-0.6,0.1-1.3-0.5-1.6l-7.4-3.8c-0.5-0.2-1.1-0.1-1.4,0.2c-0.2,0.2-0.3,0.5-0.3,0.8c0,0.2,0.1,0.4,0.2,0.6l4.1,7.3
		c0.2,0.4,0.6,0.6,1.1,0.6c0.2,0,0.4-0.1,0.6-0.2c0.4-0.2,0.6-0.6,0.6-1c0-0.2-0.1-0.4-0.2-0.6C76.9,20,75.6,17.7,74.8,16.3"/>
	<path class="st0" d="M71.4,10.4C71.4,9,70.3,8,69,8c-0.6,0-1.2,0.2-1.7,0.7c-0.4,0.4-0.7,1-0.7,1.7c0,1.3,1,2.4,2.4,2.4h0
		c0.6,0,1.2-0.3,1.7-0.7C71.1,11.6,71.4,11,71.4,10.4"/>
	<path class="st0" d="M102.3,10.6c0-1.3-1.1-2.4-2.4-2.4c-0.6,0-1.2,0.2-1.7,0.7c-0.4,0.4-0.7,1-0.7,1.7c0,1.3,1,2.4,2.4,2.4
		c0.6,0,1.2-0.2,1.7-0.7C102.1,11.8,102.3,11.2,102.3,10.6"/>
	<path class="st0" d="M16.6,37.4C16.9,37,17,36.6,17,36v-0.5c0-1-0.5-1.6-0.9-1.8c-0.5-0.4-1.3-0.5-2.4-0.5h-3c-0.4,0-0.7,0-0.9-0.1
		c-0.2,0-0.3-0.1-0.4-0.1c0,0-0.1-0.1-0.1-0.1c0-0.1,0-0.2,0-0.4c0-0.3,0.1-0.4,0.1-0.5c0,0,0.1-0.1,0.2-0.2
		c0.2-0.1,0.4-0.1,0.7-0.1c0.3,0,0.7,0,1.2,0h1.1c0.7,0,1.2,0,1.5,0c0.4,0,0.6,0.1,0.7,0.1c0,0,0,0,0,0c0,0,0,0.1,0,0.2
		c0,0.3,0.2,0.5,0.5,0.5h1c0.3,0,0.5-0.2,0.5-0.5v-0.3c0-0.3,0-0.6-0.1-0.8c-0.1-0.3-0.3-0.5-0.6-0.7c-0.3-0.1-0.6-0.2-1.1-0.3
		c-0.4-0.1-0.9-0.1-1.6-0.1h-2.5c-0.6,0-1,0-1.5,0.1C9,29.9,8.6,30,8.3,30.2c-0.3,0.2-0.6,0.5-0.8,0.9c-0.2,0.3-0.2,0.8-0.2,1.3
		c0,0.6,0.1,1,0.3,1.4c0.2,0.4,0.5,0.7,0.9,0.9c0.4,0.2,0.9,0.3,1.4,0.3c0.5,0,1.2,0.1,2,0.1h1.9c0.3,0,0.5,0,0.7,0
		c0.2,0,0.3,0.1,0.3,0.1c0,0,0.1,0.1,0.1,0.1c0,0.1,0.1,0.2,0.1,0.4c0,0.2,0,0.4-0.1,0.5c0,0.1-0.1,0.1-0.1,0.2
		c-0.1,0-0.2,0.1-0.4,0.1c-0.2,0-0.5,0.1-0.8,0.1h-3.2c-0.3,0-0.6,0-0.8,0c-0.2,0-0.3-0.1-0.4-0.1c0,0,0,0,0,0c0,0,0,0,0-0.1v-0.1
		c0-0.3-0.2-0.5-0.5-0.5h-1c-0.3,0-0.5,0.2-0.5,0.5v0.3c0,0.4,0.1,0.8,0.3,1.1c0.2,0.3,0.5,0.5,0.8,0.6c0.3,0.1,0.6,0.2,1,0.2
		c0.3,0,0.7,0,1.1,0h3c0.4,0,0.8,0,1.2-0.1c0.4,0,0.8-0.1,1.1-0.3C16.1,38,16.4,37.7,16.6,37.4"/>
	<path class="st0" d="M28.2,37.8c0.3-0.2,0.4-0.5,0.5-0.9c0.1-0.3,0.1-0.7,0.1-1v-0.5c0-0.3-0.2-0.5-0.5-0.5h-1
		c-0.3,0-0.5,0.2-0.5,0.5v0.5c0,0.3,0,0.4-0.1,0.5c0,0.1-0.1,0.1-0.1,0.2c-0.1,0-0.2,0.1-0.3,0.1c-0.2,0-0.5,0.1-0.8,0.1H22
		c-0.2,0-0.4,0-0.6-0.1c-0.1,0-0.3-0.1-0.4-0.2c-0.1-0.1-0.2-0.2-0.2-0.3c-0.1-0.1-0.1-0.3-0.1-0.6v-2.9c0-0.3,0-0.5,0.1-0.6
		c0.1-0.1,0.1-0.2,0.2-0.3c0.1-0.1,0.2-0.1,0.4-0.2c0.2,0,0.4-0.1,0.6-0.1h3.6c0.2,0,0.4,0,0.6,0c0.1,0,0.3,0,0.4,0.1
		c0.1,0,0.1,0.1,0.2,0.2c0,0.1,0.1,0.2,0.1,0.5v0.3c0,0.3,0.2,0.5,0.5,0.5h0.9c0.3,0,0.5-0.2,0.5-0.5v-0.6c0-0.3,0-0.6-0.1-0.9
		c-0.1-0.3-0.3-0.6-0.5-0.8c-0.2-0.2-0.5-0.4-0.9-0.5c-0.4-0.1-0.8-0.2-1.3-0.2h-3.9c-0.6,0-1.1,0.1-1.5,0.2c-0.4,0.1-0.8,0.4-1,0.7
		c-0.3,0.3-0.4,0.7-0.6,1.1c-0.1,0.4-0.1,0.9-0.1,1.4v2.1c0,0.5,0,1,0.1,1.4c0.1,0.4,0.3,0.8,0.6,1.1c0.3,0.3,0.6,0.5,1,0.7
		c0.4,0.1,0.9,0.2,1.5,0.2h3.9c0.6,0,1,0,1.4-0.2C27.6,38.2,27.9,38.1,28.2,37.8"/>
	<path class="st0" d="M31,37.6c0.3,0.3,0.6,0.5,1,0.7c0.4,0.1,0.9,0.2,1.4,0.2h4.4c0.6,0,1-0.1,1.4-0.2c0.4-0.1,0.8-0.4,1-0.7
		c0.3-0.3,0.4-0.7,0.6-1.1c0.1-0.4,0.2-0.9,0.2-1.4v-2.1c0-0.5-0.1-1-0.2-1.4c-0.1-0.4-0.3-0.8-0.6-1.1c-0.3-0.3-0.6-0.5-1-0.7
		c-0.4-0.1-0.9-0.2-1.4-0.2h-4.4c-0.6,0-1.1,0.1-1.4,0.2c-0.4,0.1-0.8,0.4-1,0.7c-0.3,0.3-0.4,0.7-0.6,1.1c-0.1,0.4-0.1,0.9-0.1,1.4
		v2.1c0,0.5,0,1,0.1,1.4C30.6,37,30.7,37.3,31,37.6 M32.3,32.7c0-0.3,0-0.5,0.1-0.6c0.1-0.1,0.1-0.2,0.2-0.3
		c0.1-0.1,0.2-0.1,0.4-0.2c0.2,0,0.4-0.1,0.6-0.1h4.2c0.2,0,0.4,0,0.6,0.1c0.1,0,0.3,0.1,0.4,0.2c0.1,0.1,0.2,0.2,0.2,0.3
		c0.1,0.1,0.1,0.3,0.1,0.6v2.8c0,0.3,0,0.5-0.1,0.6c-0.1,0.1-0.1,0.2-0.2,0.3c-0.1,0.1-0.2,0.1-0.4,0.2c-0.2,0-0.4,0.1-0.6,0.1h-4.2
		c-0.2,0-0.4,0-0.6-0.1c-0.1,0-0.3-0.1-0.4-0.2c-0.1-0.1-0.2-0.2-0.2-0.3c-0.1-0.1-0.1-0.3-0.1-0.6V32.7z"/>
	<path class="st0" d="M48,37.9v-6.3h3.3c0.3,0,0.5-0.2,0.5-0.5v-0.8c0-0.3-0.2-0.5-0.5-0.5h-8.7c-0.3,0-0.5,0.2-0.5,0.5v0.8
		c0,0.3,0.2,0.5,0.5,0.5h3.3v6.3c0,0.3,0.2,0.5,0.5,0.5h1C47.7,38.4,48,38.2,48,37.9"/>
	<path class="st0" d="M62,29.8h-8.7c-0.3,0-0.5,0.2-0.5,0.5v0.8c0,0.3,0.2,0.5,0.5,0.5h3.3v6.3c0,0.3,0.2,0.5,0.5,0.5h1
		c0.3,0,0.5-0.2,0.5-0.5v-6.3H62c0.3,0,0.5-0.2,0.5-0.5v-0.8C62.5,30.1,62.3,29.8,62,29.8"/>
	<path class="st0" d="M73.6,30.1c-0.1-0.2-0.3-0.3-0.5-0.3h-1.4c-0.1,0-0.3,0.1-0.4,0.1l-3.1,3.2L65.2,30c-0.1-0.1-0.2-0.1-0.4-0.1
		h-1.4c-0.2,0-0.4,0.1-0.5,0.3c-0.1,0.2,0,0.4,0.1,0.5l4.2,4.2v3c0,0.3,0.2,0.5,0.5,0.5h1c0.3,0,0.5-0.2,0.5-0.5v-3l4.2-4.2
		C73.6,30.5,73.7,30.3,73.6,30.1"/>
	<path class="st0" d="M88,38.3c0.4-0.1,0.7-0.3,1-0.5c0.3-0.2,0.4-0.5,0.5-0.9c0.1-0.3,0.1-0.6,0.1-1v-0.5c0-0.3-0.2-0.5-0.5-0.5h-1
		c-0.3,0-0.5,0.2-0.5,0.5v0.5c0,0.3,0,0.4-0.1,0.5c0,0.1-0.1,0.1-0.1,0.2c-0.1,0-0.2,0.1-0.3,0.1c-0.2,0-0.5,0.1-0.8,0.1h-3.6
		c-0.2,0-0.4,0-0.6-0.1c-0.1,0-0.3-0.1-0.4-0.2c-0.1-0.1-0.2-0.2-0.2-0.3c-0.1-0.1-0.1-0.3-0.1-0.6v-2.8c0-0.3,0-0.5,0.1-0.6
		c0.1-0.1,0.1-0.2,0.2-0.3c0.1-0.1,0.2-0.1,0.4-0.2c0.2,0,0.4-0.1,0.6-0.1h3.6c0.2,0,0.4,0,0.6,0c0.1,0,0.3,0,0.4,0.1
		c0.1,0,0.1,0.1,0.2,0.2c0,0.1,0.1,0.2,0.1,0.5v0.3c0,0.3,0.2,0.5,0.5,0.5H89c0.3,0,0.5-0.2,0.5-0.5v-0.6c0-0.3,0-0.6-0.1-0.9
		c-0.1-0.3-0.3-0.6-0.5-0.8c-0.2-0.2-0.5-0.4-0.9-0.5c-0.4-0.1-0.8-0.2-1.3-0.2h-3.9c-0.6,0-1.1,0.1-1.5,0.2c-0.4,0.1-0.8,0.4-1,0.7
		c-0.3,0.3-0.4,0.7-0.6,1.1c-0.1,0.4-0.1,0.9-0.1,1.4v2.1c0,0.5,0,1,0.1,1.4c0.1,0.4,0.3,0.8,0.6,1.1c0.3,0.3,0.6,0.5,1,0.7
		c0.4,0.1,0.9,0.2,1.5,0.2h3.9C87.2,38.5,87.7,38.4,88,38.3"/>
	<path class="st0" d="M99.7,38.2c0.1,0.2,0.3,0.2,0.4,0.2h1.2c0.2,0,0.3-0.1,0.4-0.3c0.1-0.2,0.1-0.3,0-0.5l-4.5-7.6
		c-0.1-0.2-0.3-0.2-0.4-0.2h-1.3c-0.2,0-0.3,0.1-0.4,0.2l-4.5,7.6c-0.1,0.2-0.1,0.3,0,0.5c0.1,0.2,0.3,0.3,0.4,0.3h1.2
		c0.2,0,0.3-0.1,0.4-0.2l0.8-1.4h5.5L99.7,38.2z M94.5,35l1.7-2.8l1.7,2.8H94.5z"/>
	<path class="st0" d="M115.5,38.4c0.3,0,0.5-0.2,0.5-0.5v-7.6c0-0.3-0.2-0.5-0.5-0.5h-1.6c-0.2,0-0.3,0.1-0.4,0.2l-4,5.8l-4-5.8
		c-0.1-0.1-0.2-0.2-0.4-0.2h-1.6c-0.3,0-0.5,0.2-0.5,0.5v7.6c0,0.3,0.2,0.5,0.5,0.5h1c0.3,0,0.5-0.2,0.5-0.5v-5.1l3.7,5.4
		c0.1,0.1,0.2,0.2,0.4,0.2h0.7c0.2,0,0.3-0.1,0.4-0.2l3.7-5.4v5.1c0,0.3,0.2,0.5,0.5,0.5H115.5z"/>
	<path class="st0" d="M118.5,38.4h7.5c0.3,0,0.5-0.2,0.5-0.5v-0.8c0-0.3-0.2-0.5-0.5-0.5h-6v-1.7h5.7c0.3,0,0.5-0.2,0.5-0.5v-0.8
		c0-0.3-0.2-0.5-0.5-0.5H120v-1.4h5.9c0.3,0,0.5-0.2,0.5-0.5v-0.8c0-0.3-0.2-0.5-0.5-0.5h-7.4c-0.3,0-0.5,0.2-0.5,0.5v7.6
		C118,38.2,118.3,38.4,118.5,38.4"/>
	<path class="st0" d="M137.1,30.5c-0.2-0.2-0.6-0.4-1-0.5c-0.4-0.1-0.9-0.2-1.5-0.2h-6.1c-0.3,0-0.5,0.2-0.5,0.5v7.6
		c0,0.3,0.2,0.5,0.5,0.5h1c0.3,0,0.5-0.2,0.5-0.5v-2.5h4.5c0.2,0,0.4,0,0.6,0c0.1,0,0.2,0,0.3,0.1c0,0,0.1,0.1,0.1,0.2
		c0,0.1,0.1,0.2,0.1,0.5v1.7c0,0.3,0.2,0.5,0.5,0.5h1c0.3,0,0.5-0.2,0.5-0.5V36c0-0.2,0-0.4-0.1-0.6c-0.1-0.2-0.1-0.4-0.3-0.6
		c0-0.1-0.1-0.1-0.2-0.2c0,0,0,0,0,0c0.2-0.2,0.3-0.4,0.4-0.6c0.1-0.2,0.1-0.5,0.1-0.8v-0.6c0-0.4,0-0.7-0.1-1
		C137.5,31.1,137.3,30.8,137.1,30.5 M130.1,31.7h4.2c0.3,0,0.6,0,0.9,0.1c0.2,0,0.3,0.1,0.4,0.1c0.1,0,0.1,0.1,0.1,0.1
		c0,0.1,0,0.2,0,0.4V33c0,0.3-0.1,0.4-0.2,0.4c-0.1,0.1-0.4,0.2-1,0.2h-4.4V31.7z"/>
	<path class="st0" d="M149.4,37.6c0.3-0.3,0.4-0.7,0.6-1.1c0.1-0.4,0.2-0.9,0.2-1.4v-2.1c0-0.5-0.1-1-0.2-1.4
		c-0.1-0.4-0.3-0.8-0.6-1.1c-0.3-0.3-0.6-0.5-1-0.7c-0.4-0.1-0.9-0.2-1.4-0.2h-4.4c-0.6,0-1.1,0.1-1.5,0.2c-0.4,0.1-0.8,0.4-1,0.7
		c-0.3,0.3-0.4,0.7-0.6,1.1c-0.1,0.4-0.1,0.9-0.1,1.4v2.1c0,0.5,0,1,0.1,1.4c0.1,0.4,0.3,0.8,0.6,1.1c0.3,0.3,0.6,0.5,1,0.7
		c0.4,0.1,0.9,0.2,1.5,0.2h4.4c0.6,0,1-0.1,1.4-0.2C148.7,38.2,149.1,37.9,149.4,37.6 M148.1,35.5c0,0.3,0,0.5-0.1,0.6
		c-0.1,0.1-0.1,0.2-0.2,0.3c-0.1,0.1-0.2,0.1-0.4,0.2c-0.2,0-0.4,0.1-0.6,0.1h-4.2c-0.2,0-0.4,0-0.6-0.1c-0.1,0-0.3-0.1-0.4-0.2
		c-0.1-0.1-0.2-0.2-0.2-0.3c-0.1-0.1-0.1-0.3-0.1-0.6v-2.8c0-0.3,0-0.5,0.1-0.6c0.1-0.1,0.1-0.2,0.2-0.3c0.1-0.1,0.2-0.1,0.4-0.2
		c0.2,0,0.4-0.1,0.6-0.1h4.2c0.2,0,0.4,0,0.6,0.1c0.1,0,0.3,0.1,0.4,0.2c0.1,0.1,0.2,0.2,0.2,0.3c0.1,0.1,0.1,0.3,0.1,0.6V35.5z"/>
	<path class="st0" d="M161.9,29.8h-1c-0.3,0-0.5,0.2-0.5,0.5v5.5l-6.1-5.9c-0.1-0.1-0.2-0.1-0.3-0.1h-1.5c-0.3,0-0.5,0.2-0.5,0.5
		v7.6c0,0.3,0.2,0.5,0.5,0.5h1c0.3,0,0.5-0.2,0.5-0.5v-5.5l6.1,5.9c0.1,0.1,0.2,0.1,0.3,0.1h1.5c0.3,0,0.5-0.2,0.5-0.5v-7.6
		C162.4,30.1,162.2,29.8,161.9,29.8"/>
</g>
</svg>
