<?xml version="1.0" encoding="utf-8"?>
<!-- Generator: Adobe Illustrator 25.4.1, SVG Export Plug-In . SVG Version: 6.00 Build 0)  -->
<svg version="1.1" id="Layer_1" xmlns="http://www.w3.org/2000/svg" xmlns:xlink="http://www.w3.org/1999/xlink" x="0px" y="0px"
	 width="2048px" height="1366px" viewBox="0 0 2048 1366" style="enable-background:new 0 0 2048 1366;" xml:space="preserve">
<style type="text/css">
	.st0{fill:#FFFFFF;}
</style>
<g>
	<path class="st0" d="M0,0v1366h2048V0H0z M1067.9,808.4l0,0.2h-0.4c-13.4,4.6-27.7,7.1-42.6,7.1c-72.7,0-131.8-59.1-131.8-131.8
		c0-72.7,59.1-131.8,131.8-131.8c72.7,0,131.8,59.1,131.8,131.8C1156.6,741.4,1119.5,790.5,1067.9,808.4z"/>
	<path class="st0" d="M1024.8,570.3c-28,0-53.7,10.2-73.5,27.1h107.3l-6.1,28.8h-46.7l-26.6,126.9h-34.5l26.6-126.9h-44.4
		c-10,16.9-15.8,36.7-15.8,57.7c0,62.6,51,113.6,113.6,113.6c3.7,0,7.4-0.2,11-0.5l24.2-115.3h-48.9l6.1-28.8h116.9
		C1120.6,605.2,1076.7,570.3,1024.8,570.3z"/>
	<path class="st0" d="M1072.4,787c39-18,66-57.5,66-103.1c0-0.7,0-1.5,0-2.2h-43.9L1072.4,787z"/>
</g>
</svg>
