<?xml version="1.0" encoding="utf-8"?>
<!-- Generator: Adobe Illustrator 26.3.1, SVG Export Plug-In . SVG Version: 6.00 Build 0)  -->
<svg version="1.1" id="Layer_1" xmlns="http://www.w3.org/2000/svg" xmlns:xlink="http://www.w3.org/1999/xlink" x="0px" y="0px"
	 width="198px" height="41px" viewBox="0 0 198 41" style="enable-background:new 0 0 198 41;" xml:space="preserve">
<style type="text/css">
	.st0{fill:#4C4C4C;}
</style>
<polygon class="st0" points="40.2,37.9 36.3,34 34.7,34 40,39.1 40.5,39.1 45.8,34 44.2,34 "/>
<path class="st0" d="M141.1,34.8v3.5c0,0.6,0.5,0.8,0.9,0.8h7.6c0.5,0,0.9-0.4,0.9-0.9v-2.2h-3.2l0,1h2.2v1h-7.3V35h8.3v-1H142
	C141.5,34,141.1,34.3,141.1,34.8z"/>
<polygon class="st0" points="71.9,39.1 81.3,39.1 81.3,38.1 73,38.1 73,37.1 80.6,37.1 80.6,36.1 73,36.1 73,35 81.3,35 81.3,34 
	71.9,34 "/>
<polygon class="st0" points="112.6,39.1 121.9,39.1 121.9,38.1 113.6,38.1 113.6,37.1 121.2,37.1 121.2,36.1 113.6,36.1 113.6,35 
	121.9,35 121.9,34 112.6,34 "/>
<rect x="137.1" y="34" class="st0" width="1" height="5.1"/>
<polygon class="st0" points="161.6,38 154.4,34 153.3,34 153.3,39.1 154.3,39.1 154.3,35.2 161.5,39.1 162.6,39.1 162.6,34 
	161.6,34 "/>
<path class="st0" d="M124.8,34.8v1.5c0,0.5,0.5,0.7,0.9,0.7h7.4v1h-8.3v1h8.4c0.4,0,0.9-0.3,0.9-0.8v-1.5c0-0.5-0.4-0.7-0.9-0.7
	h-7.4v-1h8.3v-1h-8.4C125.2,34,124.8,34.3,124.8,34.8z"/>
<path class="st0" d="M56,34h-7.5c-0.5,0-0.9,0.3-0.9,0.8v3.5c0,0.5,0.4,0.8,0.9,0.8H56c0.5,0,0.9-0.3,0.9-0.8v-3.5
	C56.9,34.4,56.6,34,56,34z M55.9,38.1h-7.3V35h7.3V38.1z"/>
<polygon class="st0" points="69.1,34 67.4,34 64.6,36.1 60.8,36.1 60.8,34 59.8,34 59.8,39.1 60.8,39.1 60.8,37.1 64.6,37.1 
	67.4,39.1 69.1,39.1 65.7,36.6 "/>
<polygon class="st0" points="89.4,36.4 85.6,34 83.5,34 88.9,37.3 88.9,39.1 89.9,39.1 89.9,37.3 95.3,34 93.4,34 "/>
<path class="st0" d="M107.5,34h-7v5.1h7c1.3,0,2.3-1,2.3-2.3v-0.5C109.7,35,108.7,34,107.5,34z M108.7,36.8c0,0.7-0.6,1.3-1.3,1.3
	h-6V35h6c0.7,0,1.3,0.6,1.3,1.3V36.8z"/>
<path class="st0" d="M81.8,4.9H1.5C1.3,4.9,1,5.1,1,5.3c0,0.2,0.1,0.3,0.3,0.4l7,3.2h71.3L81.8,4.9z"/>
<path class="st0" d="M77.7,12.4h-64c-0.3,0-0.5,0.2-0.5,0.5c0,0.2,0.1,0.3,0.3,0.4l7.1,3.2h54.9L77.7,12.4z"/>
<path class="st0" d="M28.1,20.1c-0.3,0-0.5,0.2-0.5,0.5c0,0.2,0.1,0.3,0.3,0.4l7,3.2l36.5,0l2.2-4L28.1,20.1z"/>
<path class="st0" d="M169.2,20h-51.7l-2.2,4h47.1l7-3.2c0.2-0.1,0.3-0.4,0.2-0.6C169.6,20.2,169.4,20,169.2,20z"/>
<path class="st0" d="M196.2,5.1c-0.1-0.2-0.2-0.3-0.4-0.3h-70l-2.2,4H189l7-3.2C196.2,5.6,196.3,5.3,196.2,5.1z"/>
<path class="st0" d="M183.6,12.4h-61.9l-2.2,4h57.2l7-3.2c0.2-0.1,0.3-0.4,0.2-0.6C183.9,12.5,183.7,12.4,183.6,12.4z"/>
<path class="st0" d="M118.8,7.5c0.5-1,0.9-2,1-3.1c0.1-0.7,0-1.4-0.2-2c-0.2-0.4-0.5-0.7-0.9-0.9c-0.4,0.9-0.8,1.8-1.2,2.7
	c-0.4,0.9-0.8,1.8-1.3,2.6c-0.9,1.3-1.8,2.6-2.8,3.8c-1.1,1.4-2.3,2.8-3.5,4.2c-1.2,1.3-2.4,2.6-3.6,3.9c-0.8,0.8-1.6,1.7-2.3,2.7
	c-0.1,0.1-0.2,0.3-0.3,0.4c-0.1,0.1-0.2,0.1-0.3,0.1c0,0-0.1,0-0.1-0.1c-0.1-0.1-0.1-0.2-0.1-0.3c0.1-0.4,0.2-0.8,0.3-1.2
	c0.2-0.7,0.4-1.4,0.7-2.1c0.7-1.5,1.4-3.1,2.1-4.6c0.7-1.5,1.5-3.1,2.2-4.6c0.5-1,0.9-2.1,1.2-3.1c0.2-0.7,0.2-1.3,0.1-2
	c-0.1-0.5-0.4-1.1-0.8-1.5c-0.5-0.5-1.2-0.9-1.9-1.1c-0.8-0.2-1.6-0.3-2.4-0.1c-0.7,0.2-1.3,0.5-1.9,0.9c-0.6,0.4-1.2,0.8-1.7,1.3
	c-0.3-0.5-0.7-0.9-1.1-1.3c-0.4-0.3-1-0.5-1.5-0.6c-0.9-0.2-1.9-0.1-2.8,0.2C95,2,94.4,2.3,93.9,2.7c-0.6,0.4-1.1,0.8-1.6,1.3
	c0-0.3,0-0.7-0.2-1c-0.1-0.3-0.3-0.6-0.6-0.8C91.3,2,90.9,1.9,90.6,2c-0.3,0.1-0.5,0.2-0.7,0.4c-0.3,0.2-0.5,0.5-0.7,0.8
	c-0.3,0.4-0.5,0.7-0.7,1.1c-3.6,6.7-7.2,13.3-10.8,20c-0.1,0.2-0.2,0.5-0.2,0.7c0,0.2,0.1,0.5,0.3,0.6c0.2,0.2,0.3,0.3,0.6,0.4
	c0.6,0.3,1.3,0.5,2,0.7c0.2,0.1,0.5,0,0.7-0.2c0.2-0.2,0.4-0.5,0.6-0.8c0.2-0.4,0.5-0.7,0.7-1.1c0.1-0.2,0.3-0.3,0.4-0.4
	c0.2-0.1,0.4,0,0.5,0.1c0.2,0.3,0.5,0.6,0.7,0.9c0.4,0.6,1,1.1,1.7,1.3c1.1,0.5,2.4,0.7,3.6,0.5c1.8-0.2,3.4-1,4.8-2
	c1.1-0.8,2-1.9,2.7-3.2c0.5-0.9,0.8-1.8,0.9-2.8c0.1-1,0-2.1-0.5-3c-0.4-0.7-0.9-1.2-1.5-1.7c-0.5-0.4-1.1-0.7-1.8-1
	c1.4-0.3,2.8-0.9,3.9-1.8c0.9-0.7,1.8-1.5,2.5-2.4c0.3-0.4,0.5-0.8,0.8-1.3c0.5-0.8,0.9-1.5,1.5-2.2c0.3-0.4,0.5-0.7,0.9-1
	c0.3-0.3,0.6-0.5,1-0.7c0.2-0.1,0.5-0.1,0.7,0c0.2,0.1,0.4,0.2,0.5,0.4c0.1,0.1,0.2,0.2,0.2,0.4c0,0.2,0,0.4-0.1,0.6
	c-0.2,0.6-0.4,1.2-0.7,1.8c-1,2.1-2,4.2-3,6.4c-0.8,1.6-1.5,3.2-2,5c-0.4,1.3-0.5,2.6-0.4,4c0.1,1.1,0.4,2.2,1,3.1
	c0.3,0.6,0.8,1,1.3,1.4c0.4,0.3,0.9,0.2,1.2-0.1c0.5-0.4,0.9-0.9,1.2-1.5c0.7-0.9,1.3-1.8,2-2.7c0.7-0.9,1.4-1.7,2.2-2.5
	c1-1,1.9-2,2.9-3c1.7-1.9,3.3-3.9,5-5.9C117.2,10.1,118,8.8,118.8,7.5z M93.2,18.8c-0.1,0.8-0.2,1.6-0.5,2.3c-0.4,1-1,1.9-1.9,2.6
	c-0.4,0.3-0.9,0.6-1.3,0.8c-0.7,0.2-1.4,0.2-2.1,0c-0.5-0.1-1-0.4-1.4-0.7c-0.4-0.3-0.6-0.6-0.8-1c-0.2-0.6-0.3-1.3-0.2-1.9
	c0.2-0.9,0.5-1.8,1-2.6c0.4-0.6,0.8-1.2,1.4-1.6c0.4-0.4,0.9-0.7,1.5-0.9c0.8-0.3,1.8-0.3,2.6,0c0.6,0.2,1,0.6,1.4,1.1
	C93.1,17.4,93.2,18.1,93.2,18.8z M97.7,6.3c-0.4,0.8-0.9,1.6-1.5,2.3c-0.7,0.8-1.6,1.6-2.5,2.2c-1,0.7-2.2,1.3-3.4,1.7
	c-0.4,0.2-0.8,0.3-1.3,0.4c-0.1,0-0.1,0-0.2,0c-0.1,0-0.2-0.1-0.1-0.2c0-0.1,0-0.2,0.1-0.2c0.3-0.6,0.7-1.3,1.1-1.9
	c0.7-1.2,1.6-2.3,2.5-3.3c0.6-0.8,1.4-1.5,2.1-2.1c0.4-0.3,0.8-0.6,1.3-0.8c0.2-0.1,0.5-0.2,0.8-0.2c0.2,0,0.5,0,0.7,0
	c0.2,0.1,0.4,0.2,0.5,0.4C98,4.7,98.1,4.9,98,5.1C98,5.5,97.9,5.9,97.7,6.3z"/>
<path class="st0" d="M166.1,34.8c0.1,0,0.2-0.1,0.2-0.2v-0.3c0-0.2-0.1-0.2-0.3-0.2h-1.3v1.3h0.3v-0.5h0.8l0.3,0.5h0.3L166.1,34.8
	L166.1,34.8z M165,34.6v-0.3h1v0.3H165z"/>
<path class="st0" d="M165.5,33.1c-0.9,0-1.6,0.7-1.6,1.6s0.7,1.6,1.6,1.6c0.9,0,1.6-0.7,1.6-1.6S166.4,33.1,165.5,33.1z M165.5,36
	c-0.7,0-1.4-0.6-1.4-1.4s0.6-1.4,1.4-1.4c0.7,0,1.4,0.6,1.4,1.4S166.2,36,165.5,36z"/>
</svg>
