<?xml version="1.0" encoding="utf-8"?>
<!-- Generator: Adobe Illustrator 25.4.1, SVG Export Plug-In . SVG Version: 6.00 Build 0)  -->
<svg version="1.1" id="Layer_1" xmlns="http://www.w3.org/2000/svg" xmlns:xlink="http://www.w3.org/1999/xlink" x="0px" y="0px"
	 width="263px" height="263px" viewBox="0 0 263 263" style="enable-background:new 0 0 263 263;" xml:space="preserve">
<style type="text/css">
	.st0{fill:#FFFFFF;}
</style>
<g>
	<path class="st0" d="M131.5,0C59,0,0,59,0,131.5S59,263,131.5,263c14.9,0,29.1-2.5,42.5-7.1h0.4v-0.2
		c51.5-17.9,88.5-66.8,88.6-124.2C263,59,204,0,131.5,0z M244.7,131.5c0,45.5-26.9,84.9-65.8,102.9l22-105.1h43.8
		C244.7,130,244.7,130.8,244.7,131.5z M123.7,100.6l-6.1,28.7h48.8l-24.1,115c-3.6,0.3-7.3,0.5-11,0.5C68.8,244.8,18,194,18,131.5
		c0-21,5.8-40.7,15.8-57.6H78L51.5,200.5h34.4l26.5-126.6H159l6.1-28.7H58.1c19.8-16.9,45.4-27,73.3-27c51.8,0,95.6,34.8,109,82.4
		H123.7z"/>
</g>
</svg>
